<svg width="28" height="28" viewBox="0 0 28 28" fill="none" xmlns="http://www.w3.org/2000/svg">
<path d="M15.8771 23.4215C16.4786 23.4215 17.0555 23.1826 17.4809 22.7572C17.9062 22.3318 18.1452 21.7549 18.1452 21.1534C18.1452 20.5518 17.9062 19.9749 17.4809 19.5496C17.0555 19.1242 16.4786 18.8852 15.8771 18.8852C15.2755 18.8852 14.6986 19.1242 14.2732 19.5496C13.8479 19.9749 13.6089 20.5518 13.6089 21.1534C13.6089 21.7549 13.8479 22.3318 14.2732 22.7572C14.6986 23.1826 15.2755 23.4215 15.8771 23.4215ZM7.93855 23.4215C8.5401 23.4215 9.11701 23.1826 9.54237 22.7572C9.96773 22.3318 10.2067 21.7549 10.2067 21.1534C10.2067 20.5518 9.96773 19.9749 9.54237 19.5496C9.11701 19.1242 8.5401 18.8852 7.93855 18.8852C7.337 18.8852 6.76009 19.1242 6.33473 19.5496C5.90937 19.9749 5.67041 20.5518 5.67041 21.1534C5.67041 21.7549 5.90937 22.3318 6.33473 22.7572C6.76009 23.1826 7.337 23.4215 7.93855 23.4215ZM22.7246 7.45719C23.0077 7.44806 23.2762 7.32917 23.4732 7.12568C23.6702 6.92218 23.7804 6.65003 23.7804 6.36678C23.7804 6.08352 23.6702 5.81137 23.4732 5.60788C23.2762 5.40438 23.0077 5.2855 22.7246 5.27637H21.4193C20.3963 5.27637 19.5118 5.9863 19.2895 6.98428L17.8685 13.3827C17.6462 14.3807 16.7616 15.0906 15.7387 15.0906H7.21955L5.58422 8.54703H16.1821C16.4626 8.53423 16.7273 8.41382 16.9212 8.21084C17.1151 8.00785 17.2234 7.73792 17.2234 7.45719C17.2234 7.17645 17.1151 6.90652 16.9212 6.70354C16.7273 6.50055 16.4626 6.38014 16.1821 6.36734H5.58422C5.25269 6.36725 4.9255 6.44274 4.62753 6.58807C4.32956 6.73341 4.06864 6.94477 3.86462 7.20609C3.6606 7.4674 3.51884 7.77179 3.45012 8.09612C3.3814 8.42045 3.38753 8.75617 3.46804 9.07778L5.10337 15.6191C5.22126 16.0911 5.49359 16.5101 5.87704 16.8095C6.2605 17.1089 6.73305 17.2715 7.21955 17.2714H15.7387C16.7312 17.2716 17.6942 16.9332 18.4684 16.3121C19.2426 15.6911 19.7819 14.8246 19.9971 13.8556L21.4193 7.45719H22.7246Z" fill="white"/>
</svg>
