<svg width="20" height="21" viewBox="0 0 20 21" fill="none" xmlns="http://www.w3.org/2000/svg">
<path d="M10 3.5415C10.8841 3.5415 11.7319 3.89269 12.357 4.51781C12.9822 5.14294 13.3333 5.99078 13.3333 6.87484C13.3333 7.75889 12.9822 8.60674 12.357 9.23186C11.7319 9.85698 10.8841 10.2082 10 10.2082C9.11595 10.2082 8.26811 9.85698 7.64299 9.23186C7.01787 8.60674 6.66668 7.75889 6.66668 6.87484C6.66668 5.99078 7.01787 5.14294 7.64299 4.51781C8.26811 3.89269 9.11595 3.5415 10 3.5415ZM10 11.8748C13.6833 11.8748 16.6667 13.3665 16.6667 15.2082V16.8748H3.33334V15.2082C3.33334 13.3665 6.31668 11.8748 10 11.8748Z" fill="white"/>
</svg>
