<svg width="16" height="15" viewBox="0 0 16 15" fill="none" xmlns="http://www.w3.org/2000/svg">
<path d="M2.68653 1.89208C1.58789 2.98911 0.948891 4.46378 0.899762 6.01558C0.850632 7.56738 1.39507 9.07951 2.42212 10.2438C3.44917 11.4082 4.88154 12.1371 6.42733 12.282C7.94343 12.4241 9.45672 11.994 10.6706 11.0782L13.8232 14.2315L13.8232 14.2316C13.9022 14.3105 13.9959 14.3732 14.0991 14.4159C14.2023 14.4586 14.3129 14.4806 14.4246 14.4806C14.5362 14.4806 14.6468 14.4586 14.75 14.4159C14.8532 14.3732 14.9469 14.3105 15.0259 14.2316C15.1049 14.1526 15.1675 14.0588 15.2102 13.9557C15.253 13.8525 15.275 13.7419 15.275 13.6302C15.275 13.5185 15.253 13.408 15.2102 13.3048C15.1675 13.2016 15.1049 13.1079 15.0259 13.0289L15.0259 13.0289L11.8728 9.87648C12.7861 8.66247 13.2143 7.1502 13.0714 5.63555C12.9256 4.09105 12.1969 2.6601 11.0336 1.6338C9.87019 0.607497 8.35954 0.0629467 6.80892 0.110929C5.25831 0.158912 3.78422 0.795817 2.68653 1.89208ZM2.68653 1.89208L2.75719 1.96285L2.68653 1.89208ZM10.1121 3.09538C10.5261 3.50273 10.8554 3.98803 11.0809 4.52328C11.3065 5.05853 11.4238 5.63314 11.4262 6.21397C11.4286 6.79479 11.3159 7.37034 11.0947 7.90741C10.8735 8.44448 10.5482 8.93244 10.1375 9.34315C9.72679 9.75386 9.23882 10.0792 8.70175 10.3004C8.16468 10.5216 7.58914 10.6342 7.00831 10.6318C6.42748 10.6295 5.85287 10.5121 5.31762 10.2866C4.78237 10.061 4.29707 9.73175 3.88972 9.31771C3.07566 8.49028 2.62154 7.3747 2.62626 6.21397C2.63099 5.05323 3.09419 3.94139 3.91496 3.12061C4.73573 2.29984 5.84757 1.83665 7.00831 1.83192C8.16905 1.82719 9.28463 2.28132 10.1121 3.09538Z" fill="#CACDD8" stroke="#CACDD8" stroke-width="0.2"/>
</svg>
